<?xml version="1.0" standalone="no"?>
<!DOCTYPE svg PUBLIC "-//W3C//DTD SVG 20010904//EN"
 "http://www.w3.org/TR/2001/REC-SVG-20010904/DTD/svg10.dtd">
<svg version="1.0" xmlns="http://www.w3.org/2000/svg"
 width="200.000000pt" height="200.000000pt" viewBox="0 0 200.000000 200.000000"
 preserveAspectRatio="xMidYMid meet">
<metadata>
Created by potrace 1.11, written by Peter Selinger 2001-2013
</metadata>
<g transform="translate(0.000000,200.000000) scale(0.100000,-0.100000)"
fill="#000000" stroke="none">
<path d="M1167 1602 l-117 -117 0 -328 c0 -320 0 -327 -20 -327 -19 0 -20 7
-20 210 l0 210 -150 0 -150 0 0 -125 0 -125 -60 0 -60 0 0 290 0 290 -85 0
-85 0 0 -125 0 -125 -115 0 -115 0 0 -490 0 -490 -45 0 c-45 0 -45 0 -45 -35
l0 -35 75 0 75 0 2 488 3 487 118 3 117 3 0 124 c0 104 2 125 15 125 13 0 15
-39 15 -290 l0 -290 130 0 130 0 0 125 0 125 80 0 80 0 0 -210 0 -210 90 0 90
0 0 348 0 347 85 85 86 85 149 -155 149 -155 1 -387 0 -388 70 0 70 0 0 -130
0 -130 85 0 85 0 0 35 0 35 -50 0 -50 0 0 130 0 130 -70 0 -70 0 0 368 0 367
-188 188 -187 187 -118 -118z"/>
</g>
</svg>
